<svg width="75" height="75" viewBox="0 0 57 75" fill="none" xmlns="http://www.w3.org/2000/svg">
<g clip-path="url(#clip0)">
<path d="M14.4161 53.1189C13.1261 51.8459 13.7986 52.2048 10.6873 51.383C9.27567 51.0095 8.03473 50.2917 6.91254 49.4318L0.17793 65.7268C-0.473711 67.3044 0.743477 69.0183 2.46832 68.9538L10.2895 68.6594L15.6689 74.2668C16.8564 75.5031 18.9404 75.1179 19.5921 73.5402L27.3183 54.8459C25.7092 55.7307 23.9235 56.2492 22.0769 56.2492C19.1824 56.2492 16.463 55.1374 14.4161 53.1189ZM56.8217 65.7268L50.0871 49.4318C48.9649 50.2932 47.724 51.0095 46.3123 51.383C43.1847 52.2092 43.8705 51.8488 42.5836 53.1189C40.5366 55.1374 37.8158 56.2492 34.9212 56.2492C33.0747 56.2492 31.289 55.7292 29.6799 54.8459L37.4061 73.5402C38.0577 75.1179 40.1433 75.5031 41.3293 74.2668L46.7101 68.6594L54.5313 68.9538C56.2562 69.0183 57.4734 67.3029 56.8217 65.7268ZM39.0389 49.8039C41.307 47.5261 41.5668 47.7224 44.7968 46.8537C46.8586 46.2985 48.4706 44.6799 49.0228 42.6086C50.1331 38.4484 49.8451 38.9509 52.8748 35.9069C54.3844 34.3908 54.9737 32.1804 54.4215 30.1091C53.3126 25.9519 53.3112 26.5319 54.4215 22.3703C54.9737 20.299 54.3844 18.0886 52.8748 16.5725C49.8451 13.5285 50.1331 14.0295 49.0228 9.87081C48.4706 7.79952 46.8586 6.18087 44.7968 5.62569C40.6583 4.51095 41.1571 4.80245 38.1245 1.75704C36.6149 0.240927 34.4136 -0.352334 32.3518 0.202841C28.2148 1.31612 28.7922 1.31759 24.6479 0.202841C22.5861 -0.352334 20.3847 0.239462 18.8751 1.75704C15.8455 4.80099 16.3443 4.51095 12.2043 5.62569C10.1425 6.18087 8.53051 7.79952 7.97832 9.87081C6.8695 14.0295 7.15598 13.5285 4.12637 16.5725C2.61676 18.0886 2.02598 20.299 2.57965 22.3703C3.68848 26.5246 3.68996 25.9445 2.57965 30.1076C2.02746 32.1789 2.61676 34.3894 4.12637 35.9069C7.15598 38.9509 6.86801 38.4484 7.97832 42.6086C8.53051 44.6799 10.1425 46.2985 12.2043 46.8537C15.5264 47.7473 15.7743 47.6066 17.9608 49.8039C19.9246 51.7771 22.9839 52.1301 25.344 50.6564C26.2878 50.0652 27.3826 49.7512 28.5006 49.7512C29.6185 49.7512 30.7133 50.0652 31.6571 50.6564C34.0158 52.1301 37.0751 51.7771 39.0389 49.8039ZM14.4962 25.7746C14.4962 18.0065 20.7662 11.7092 28.4998 11.7092C36.2334 11.7092 42.5034 18.0065 42.5034 25.7746C42.5034 33.5427 36.2334 39.84 28.4998 39.84C20.7662 39.84 14.4962 33.5427 14.4962 25.7746Z" fill="#BF7E06"/>
</g>
<defs>
<clipPath id="clip0">
<rect width="57" height="75" fill="white"/>
</clipPath>
</defs>
</svg>
