<svg width="75" height="75" viewBox="0 0 75 75" fill="none" xmlns="http://www.w3.org/2000/svg">
<path d="M46.875 49.2188C46.875 50.5137 45.8262 51.5625 44.5312 51.5625H30.4688C29.1738 51.5625 28.125 50.5137 28.125 49.2188V42.1875H0V63.2812C0 67.0312 3.28125 70.3125 7.03125 70.3125H67.9688C71.7188 70.3125 75 67.0312 75 63.2812V42.1875H46.875V49.2188ZM67.9688 18.75H56.25V11.7188C56.25 7.96875 52.9688 4.6875 49.2188 4.6875H25.7812C22.0312 4.6875 18.75 7.96875 18.75 11.7188V18.75H7.03125C3.28125 18.75 0 22.0312 0 25.7812V37.5H75V25.7812C75 22.0312 71.7188 18.75 67.9688 18.75ZM46.875 18.75H28.125V14.0625H46.875V18.75Z" fill="#BF7E06"/>
</svg>
