<svg width="66" height="66" viewBox="0 0 66 66" fill="none" xmlns="http://www.w3.org/2000/svg">
<path d="M33 1.03125C15.3398 1.03125 1.03125 15.3398 1.03125 33C1.03125 50.6602 15.3398 64.9688 33 64.9688C50.6602 64.9688 64.9688 50.6602 64.9688 33C64.9688 15.3398 50.6602 1.03125 33 1.03125ZM44.9225 41.3789L42.3444 44.6016C42.1752 44.8131 41.966 44.9892 41.7288 45.1199C41.4915 45.2506 41.2308 45.3332 40.9616 45.3632C40.6924 45.3931 40.4199 45.3697 40.1598 45.2943C39.8996 45.2189 39.6568 45.093 39.4453 44.9238L30.8086 38.5146C30.2051 38.0315 29.718 37.4188 29.3833 36.7219C29.0486 36.0251 28.8749 35.2619 28.875 34.4889V14.4375C28.875 13.8905 29.0923 13.3659 29.4791 12.9791C29.8659 12.5923 30.3905 12.375 30.9375 12.375H35.0625C35.6095 12.375 36.1341 12.5923 36.5209 12.9791C36.9077 13.3659 37.125 13.8905 37.125 14.4375V33L44.6016 38.4785C44.8132 38.6478 44.9894 38.8572 45.12 39.0946C45.2507 39.332 45.3333 39.5928 45.3631 39.8622C45.3929 40.1316 45.3694 40.4041 45.2938 40.6644C45.2182 40.9246 45.092 41.1674 44.9225 41.3789Z" fill="white"/>
</svg>
