<svg width="46" height="46" viewBox="0 0 46 46" fill="none" xmlns="http://www.w3.org/2000/svg">
<path d="M4.3125 5.75H41.6875C44.0693 5.75 46 7.68074 46 10.0625V35.9375C46 38.3193 44.0693 40.25 41.6875 40.25H4.3125C1.93074 40.25 0 38.3193 0 35.9375V10.0625C0 7.68074 1.93074 5.75 4.3125 5.75ZM4.3125 10.0625V13.7286C6.32698 15.369 9.53853 17.9199 16.4043 23.296C17.9174 24.4862 20.9145 27.3455 23 27.3121C25.0851 27.3458 28.0833 24.4857 29.5957 23.296C36.4604 17.9207 39.6728 15.3693 41.6875 13.7286V10.0625H4.3125ZM41.6875 35.9375V19.2623C39.6288 20.9021 36.7093 23.203 32.2595 26.6875C30.2958 28.2333 26.8568 31.6457 23 31.6249C19.1621 31.6457 15.7668 28.2828 13.7413 26.6883C9.29155 23.2039 6.37127 20.9022 4.3125 19.2624V35.9375H41.6875Z" fill="#8C602A"/>
</svg>
