<svg width="75" height="75" viewBox="0 0 84 75" fill="none" xmlns="http://www.w3.org/2000/svg">
<g clip-path="url(#clip0)">
<path d="M67.6669 0H16.3336C15.7503 0 15.1961 0.292969 14.8753 0.791016L0.291933 22.3535C-0.130984 22.998 -0.0872336 23.8477 0.394016 24.4336L40.644 74.3555C41.344 75.2197 42.6565 75.2197 43.3565 74.3555L83.6065 24.4336C84.0878 23.833 84.1315 22.998 83.7086 22.3535L69.1398 0.791016C68.8044 0.292969 68.2648 0 67.6669 0ZM64.8523 7.03125L74.0836 21.0938H64.1086L56.569 7.03125H64.8523ZM35.3794 7.03125H48.6065L56.1461 21.0938H27.8544L35.3794 7.03125ZM19.1482 7.03125H27.4315L19.8919 21.0938H9.91693L19.1482 7.03125ZM12.8773 28.125H20.3732L30.3336 51.5625L12.8773 28.125ZM27.8836 28.125H56.1169L42.0003 63.7646L27.8836 28.125ZM53.6669 51.5625L63.6128 28.125H71.1086L53.6669 51.5625Z" fill="#BF7E06"/>
</g>
<defs>
<clipPath id="clip0">
<rect width="84" height="75" fill="white"/>
</clipPath>
</defs>
</svg>
