<svg width="28" height="29" viewBox="0 0 28 29" fill="none" xmlns="http://www.w3.org/2000/svg">
<path d="M9.36532 22.509C9.36532 22.6223 9.23548 22.7129 9.07177 22.7129C8.88548 22.7299 8.75564 22.6393 8.75564 22.509C8.75564 22.3957 8.88548 22.3051 9.04919 22.3051C9.21855 22.2881 9.36532 22.3787 9.36532 22.509ZM7.60968 22.2541C7.57016 22.3674 7.68306 22.4977 7.85242 22.5316C7.99919 22.5883 8.16855 22.5316 8.20242 22.4184C8.23629 22.3051 8.12903 22.1748 7.95968 22.1238C7.8129 22.0842 7.64919 22.1408 7.60968 22.2541ZM10.1048 22.1578C9.94113 22.1975 9.82823 22.3051 9.84516 22.4354C9.8621 22.5486 10.0089 22.6223 10.1782 22.5826C10.3419 22.543 10.4548 22.4354 10.4379 22.3221C10.421 22.2145 10.2685 22.1408 10.1048 22.1578ZM13.8194 0.453125C5.98952 0.453125 0 6.41738 0 14.2734C0 20.5549 3.94032 25.9301 9.56855 27.8219C10.2911 27.9522 10.5452 27.5047 10.5452 27.1365C10.5452 26.7854 10.5282 24.8482 10.5282 23.6588C10.5282 23.6588 6.57661 24.5084 5.74677 21.9709C5.74677 21.9709 5.10323 20.3227 4.17742 19.8979C4.17742 19.8979 2.88468 19.0086 4.26774 19.0256C4.26774 19.0256 5.67339 19.1389 6.44677 20.4869C7.68306 22.6732 9.75484 22.0445 10.5621 21.6707C10.6919 20.7645 11.0589 20.1357 11.4653 19.7619C8.30968 19.4107 5.12581 18.952 5.12581 13.5031C5.12581 11.9455 5.55484 11.1639 6.45806 10.167C6.31129 9.79883 5.83145 8.28086 6.60484 6.32109C7.78468 5.95293 10.5 7.85039 10.5 7.85039C11.629 7.5332 12.8427 7.36895 14.0452 7.36895C15.2476 7.36895 16.4613 7.5332 17.5903 7.85039C17.5903 7.85039 20.3056 5.94727 21.4855 6.32109C22.2589 8.28652 21.779 9.79883 21.6323 10.167C22.5355 11.1695 23.0887 11.9512 23.0887 13.5031C23.0887 18.9689 19.7637 19.4051 16.6081 19.7619C17.1274 20.2094 17.5677 21.059 17.5677 22.39C17.5677 24.2988 17.5508 26.6607 17.5508 27.1252C17.5508 27.4934 17.8105 27.9408 18.5274 27.8105C24.1726 25.9301 28 20.5549 28 14.2734C28 6.41738 21.6492 0.453125 13.8194 0.453125ZM5.4871 19.9885C5.41371 20.0451 5.43064 20.1754 5.52661 20.283C5.61694 20.3736 5.74677 20.4133 5.82016 20.3396C5.89355 20.283 5.87661 20.1527 5.78064 20.0451C5.69032 19.9545 5.56048 19.9148 5.4871 19.9885ZM4.87742 19.5297C4.8379 19.6033 4.89435 19.6939 5.00726 19.7506C5.09758 19.8072 5.21048 19.7902 5.25 19.7109C5.28952 19.6373 5.23306 19.5467 5.12016 19.49C5.00726 19.4561 4.91694 19.473 4.87742 19.5297ZM6.70645 21.5461C6.61613 21.6197 6.65 21.7896 6.77984 21.8973C6.90968 22.0275 7.07339 22.0445 7.14677 21.9539C7.22016 21.8803 7.18629 21.7104 7.07339 21.6027C6.94919 21.4725 6.77984 21.4555 6.70645 21.5461ZM6.0629 20.7135C5.97258 20.7701 5.97258 20.9174 6.0629 21.0477C6.15323 21.1779 6.30564 21.2346 6.37903 21.1779C6.46935 21.1043 6.46935 20.957 6.37903 20.8268C6.3 20.6965 6.15323 20.6398 6.0629 20.7135Z" fill="#262626"/>
</svg>
