<svg width="64" height="66" viewBox="0 0 64 66" fill="none" xmlns="http://www.w3.org/2000/svg">
<path d="M21.4065 51.2273C21.4065 51.4852 21.1097 51.6914 20.7355 51.6914C20.3097 51.7301 20.0129 51.5238 20.0129 51.2273C20.0129 50.9695 20.3097 50.7633 20.6839 50.7633C21.071 50.7246 21.4065 50.9309 21.4065 51.2273ZM17.3935 50.6473C17.3032 50.9051 17.5613 51.2016 17.9484 51.2789C18.2839 51.4078 18.671 51.2789 18.7484 51.0211C18.8258 50.7633 18.5806 50.4668 18.1935 50.3508C17.8581 50.2605 17.4839 50.3895 17.3935 50.6473ZM23.0968 50.4281C22.7226 50.5184 22.4645 50.7633 22.5032 51.0598C22.5419 51.3176 22.8774 51.4852 23.2645 51.3949C23.6387 51.3047 23.8968 51.0598 23.8581 50.802C23.8194 50.557 23.471 50.3895 23.0968 50.4281ZM31.5871 1.03125C13.6903 1.03125 0 14.6051 0 32.4844C0 46.7801 9.00645 59.0133 21.871 63.3188C23.5226 63.6152 24.1032 62.5969 24.1032 61.759C24.1032 60.9598 24.0645 56.5512 24.0645 53.8441C24.0645 53.8441 15.0323 55.7777 13.1355 50.0027C13.1355 50.0027 11.6645 46.2516 9.54839 45.2848C9.54839 45.2848 6.59355 43.2609 9.75484 43.2996C9.75484 43.2996 12.9677 43.5574 14.7355 46.6254C17.5613 51.6012 22.2968 50.1703 24.1419 49.3195C24.4387 47.257 25.2774 45.8262 26.2065 44.9754C18.9935 44.1762 11.7161 43.132 11.7161 30.7312C11.7161 27.1863 12.6968 25.4074 14.7613 23.1387C14.4258 22.3008 13.329 18.8461 15.0968 14.3859C17.7935 13.548 24 17.8664 24 17.8664C26.5806 17.1445 29.3548 16.7707 32.1032 16.7707C34.8516 16.7707 37.6258 17.1445 40.2065 17.8664C40.2065 17.8664 46.4129 13.5352 49.1097 14.3859C50.8774 18.859 49.7806 22.3008 49.4452 23.1387C51.5097 25.4203 52.7742 27.1992 52.7742 30.7312C52.7742 43.1707 45.1742 44.1633 37.9613 44.9754C39.1484 45.9937 40.1548 47.9273 40.1548 50.9566C40.1548 55.3008 40.1161 60.6762 40.1161 61.7332C40.1161 62.5711 40.7097 63.5895 42.3484 63.293C55.2516 59.0133 64 46.7801 64 32.4844C64 14.6051 49.4839 1.03125 31.5871 1.03125ZM12.5419 45.491C12.3742 45.6199 12.4129 45.9164 12.6323 46.1613C12.8387 46.3676 13.1355 46.4578 13.3032 46.2902C13.471 46.1613 13.4323 45.8648 13.2129 45.6199C13.0065 45.4137 12.7097 45.3234 12.5419 45.491ZM11.1484 44.4469C11.0581 44.6145 11.1871 44.8207 11.4452 44.9496C11.6516 45.0785 11.9097 45.0398 12 44.8594C12.0903 44.6918 11.9613 44.4855 11.7032 44.3566C11.4452 44.2793 11.2387 44.318 11.1484 44.4469ZM15.329 49.0359C15.1226 49.2035 15.2 49.5902 15.4968 49.8352C15.7935 50.1316 16.1677 50.1703 16.3355 49.9641C16.5032 49.7965 16.4258 49.4098 16.1677 49.1648C15.8839 48.8684 15.4968 48.8297 15.329 49.0359ZM13.8581 47.141C13.6516 47.2699 13.6516 47.6051 13.8581 47.9016C14.0645 48.198 14.4129 48.327 14.5806 48.198C14.7871 48.0305 14.7871 47.6953 14.5806 47.3988C14.4 47.1023 14.0645 46.9734 13.8581 47.141Z" fill="#262626"/>
</svg>
