<svg width="52" height="46" viewBox="0 0 52 46" fill="none" xmlns="http://www.w3.org/2000/svg">
<g clip-path="url(#clip0)">
<path d="M25.3112 13.3196L8.66667 26.9624V41.6869C8.66667 42.0682 8.81885 42.4338 9.08974 42.7034C9.36062 42.973 9.72802 43.1244 10.1111 43.1244L20.2276 43.0984C20.6095 43.0965 20.975 42.9442 21.2443 42.6748C21.5137 42.4054 21.6649 42.0409 21.6648 41.6609V33.0619C21.6648 32.6807 21.817 32.315 22.0879 32.0454C22.3588 31.7759 22.7262 31.6244 23.1093 31.6244H28.8871C29.2702 31.6244 29.6376 31.7759 29.9084 32.0454C30.1793 32.315 30.3315 32.6807 30.3315 33.0619V41.6546C30.3309 41.8437 30.3678 42.0311 30.4402 42.2061C30.5125 42.381 30.6188 42.54 30.753 42.6739C30.8872 42.8079 31.0466 42.9142 31.2221 42.9867C31.3977 43.0592 31.5859 43.0966 31.7759 43.0966L41.8889 43.1244C42.2719 43.1244 42.6393 42.973 42.9102 42.7034C43.1811 42.4338 43.3333 42.0682 43.3333 41.6869V26.9525L26.6924 13.3196C26.4968 13.1627 26.2531 13.0771 26.0018 13.0771C25.7505 13.0771 25.5068 13.1627 25.3112 13.3196ZM51.6027 22.5924L44.0555 16.4013V3.95703C44.0555 3.67109 43.9414 3.39687 43.7382 3.19468C43.5351 2.99249 43.2595 2.87891 42.9722 2.87891H37.9166C37.6293 2.87891 37.3538 2.99249 37.1506 3.19468C36.9474 3.39687 36.8333 3.67109 36.8333 3.95703V10.4806L28.7507 3.8627C27.9751 3.22748 27.0018 2.88018 25.9973 2.88018C24.9928 2.88018 24.0195 3.22748 23.2438 3.8627L0.391815 22.5924C0.282117 22.6827 0.191358 22.7935 0.124726 22.9187C0.0580941 23.0438 0.016894 23.1808 0.00348 23.3218C-0.00993401 23.4628 0.00470101 23.6051 0.0465488 23.7404C0.0883967 23.8758 0.156637 24.0017 0.247371 24.1108L2.54945 26.8959C2.63994 27.0054 2.75124 27.0961 2.87698 27.1627C3.00272 27.2294 3.14043 27.2707 3.28223 27.2843C3.42403 27.2979 3.56713 27.2835 3.70335 27.242C3.83956 27.2005 3.96621 27.1327 4.07605 27.0424L25.3112 9.63606C25.5068 9.47912 25.7505 9.39354 26.0018 9.39354C26.2531 9.39354 26.4968 9.47912 26.6924 9.63606L47.9284 27.0424C48.0381 27.1327 48.1645 27.2006 48.3006 27.2422C48.4366 27.2839 48.5795 27.2985 48.7212 27.2851C48.8629 27.2718 49.0005 27.2308 49.1263 27.1644C49.2521 27.0981 49.3635 27.0078 49.4541 26.8986L51.7562 24.1135C51.8468 24.0037 51.9148 23.8772 51.9562 23.7413C51.9975 23.6053 52.0115 23.4625 51.9972 23.3212C51.9829 23.1799 51.9407 23.0427 51.873 22.9176C51.8053 22.7926 51.7135 22.682 51.6027 22.5924Z" fill="#8C602A"/>
</g>
<defs>
<clipPath id="clip0">
<rect width="52" height="46" fill="white"/>
</clipPath>
</defs>
</svg>
