<svg width="80" height="64" viewBox="0 0 80 64" fill="none" xmlns="http://www.w3.org/2000/svg">
<g clip-path="url(#clip0)">
<path d="M34.8623 63.9377L27.2373 61.7252C26.4373 61.5002 25.9873 60.6627 26.2123 59.8627L43.2748 1.08774C43.4998 0.287736 44.3373 -0.162264 45.1373 0.062736L52.7623 2.27524C53.5623 2.50024 54.0123 3.33774 53.7873 4.13774L36.7248 62.9127C36.4873 63.7127 35.6623 64.1752 34.8623 63.9377ZM20.6123 49.9127L26.0498 44.1127C26.6248 43.5002 26.5873 42.5252 25.9498 41.9627L14.6248 32.0002L25.9498 22.0377C26.5873 21.4752 26.6373 20.5002 26.0498 19.8877L20.6123 14.0877C20.0498 13.4877 19.0998 13.4502 18.4873 14.0252L0.474768 30.9002C-0.162732 31.4877 -0.162732 32.5002 0.474768 33.0877L18.4873 49.9752C19.0998 50.5502 20.0498 50.5252 20.6123 49.9127ZM61.5123 49.9877L79.5248 33.1002C80.1623 32.5127 80.1623 31.5002 79.5248 30.9127L61.5123 14.0127C60.9123 13.4502 59.9623 13.4752 59.3873 14.0752L53.9498 19.8752C53.3748 20.4877 53.4123 21.4627 54.0498 22.0252L65.3748 32.0002L54.0498 41.9627C53.4123 42.5252 53.3623 43.5002 53.9498 44.1127L59.3873 49.9127C59.9498 50.5252 60.8998 50.5502 61.5123 49.9877Z" fill="#BF7E06"/>
</g>
<defs>
<clipPath id="clip0">
<rect width="80" height="64" fill="white"/>
</clipPath>
</defs>
</svg>
