<svg width="26" height="29" viewBox="0 0 26 29" fill="none" xmlns="http://www.w3.org/2000/svg">
<g clip-path="url(#clip0)">
<path d="M12.7481 7.98647C9.13017 7.98647 6.21193 10.8921 6.21193 14.4945C6.21193 18.0968 9.13017 21.0025 12.7481 21.0025C16.366 21.0025 19.2843 18.0968 19.2843 14.4945C19.2843 10.8921 16.366 7.98647 12.7481 7.98647ZM12.7481 18.7255C10.4101 18.7255 8.49874 16.8281 8.49874 14.4945C8.49874 12.1609 10.4044 10.2634 12.7481 10.2634C15.0918 10.2634 16.9975 12.1609 16.9975 14.4945C16.9975 16.8281 15.0861 18.7255 12.7481 18.7255V18.7255ZM21.0762 7.72026C21.0762 8.56421 20.3936 9.23823 19.5517 9.23823C18.7041 9.23823 18.0271 8.55854 18.0271 7.72026C18.0271 6.88198 18.7097 6.20229 19.5517 6.20229C20.3936 6.20229 21.0762 6.88198 21.0762 7.72026ZM25.4052 9.26089C25.3085 7.22749 24.842 5.42632 23.3459 3.94233C21.8555 2.45835 20.0466 1.9939 18.0044 1.89194C15.8996 1.773 9.59094 1.773 7.48617 1.89194C5.44966 1.98823 3.64069 2.45269 2.14459 3.93667C0.648492 5.42065 0.187717 7.22182 0.0853227 9.25522C-0.0341375 11.3509 -0.0341375 17.6324 0.0853227 19.7281C0.182029 21.7615 0.648492 23.5626 2.14459 25.0466C3.64069 26.5306 5.44397 26.9951 7.48617 27.097C9.59094 27.216 15.8996 27.216 18.0044 27.097C20.0466 27.0007 21.8555 26.5363 23.3459 25.0466C24.8363 23.5626 25.3028 21.7615 25.4052 19.7281C25.5247 17.6324 25.5247 11.3566 25.4052 9.26089V9.26089ZM22.6861 21.9767C22.2424 23.0869 21.3834 23.9421 20.2627 24.3896C18.5846 25.0523 14.6026 24.8994 12.7481 24.8994C10.8936 24.8994 6.90593 25.0466 5.23349 24.3896C4.11853 23.9478 3.25955 23.0925 2.81015 21.9767C2.14459 20.3058 2.29818 16.341 2.29818 14.4945C2.29818 12.648 2.15028 8.67749 2.81015 7.01225C3.25386 5.9021 4.11284 5.04683 5.23349 4.59936C6.91162 3.93667 10.8936 4.0896 12.7481 4.0896C14.6026 4.0896 18.5903 3.94233 20.2627 4.59936C21.3777 5.04116 22.2367 5.89643 22.6861 7.01225C23.3516 8.68315 23.198 12.648 23.198 14.4945C23.198 16.341 23.3516 20.3115 22.6861 21.9767Z" fill="#262626"/>
</g>
<defs>
<clipPath id="clip0">
<rect width="25.4848" height="29" fill="white"/>
</clipPath>
</defs>
</svg>
