<svg width="63" height="72" viewBox="0 0 63 72" fill="none" xmlns="http://www.w3.org/2000/svg">
<g clip-path="url(#clip0)">
<path d="M31.514 19.8283C22.5703 19.8283 15.3562 27.0424 15.3562 35.9861C15.3562 44.9299 22.5703 52.1439 31.514 52.1439C40.4578 52.1439 47.6719 44.9299 47.6719 35.9861C47.6719 27.0424 40.4578 19.8283 31.514 19.8283ZM31.514 46.4908C25.7344 46.4908 21.0094 41.7799 21.0094 35.9861C21.0094 30.1924 25.7203 25.4814 31.514 25.4814C37.3078 25.4814 42.0187 30.1924 42.0187 35.9861C42.0187 41.7799 37.2937 46.4908 31.514 46.4908ZM52.1015 19.1674C52.1015 21.2627 50.414 22.9361 48.3328 22.9361C46.2375 22.9361 44.564 21.2486 44.564 19.1674C44.564 17.0861 46.2515 15.3986 48.3328 15.3986C50.414 15.3986 52.1015 17.0861 52.1015 19.1674ZM62.8031 22.9924C62.564 17.9439 61.4109 13.4721 57.7125 9.78769C54.0281 6.10332 49.5562 4.9502 44.5078 4.69707C39.3047 4.40176 23.7094 4.40176 18.5062 4.69707C13.4719 4.93613 8.99999 6.08926 5.30155 9.77363C1.60311 13.458 0.46405 17.9299 0.210925 22.9783C-0.0843872 28.1814 -0.0843872 43.7767 0.210925 48.9799C0.449988 54.0283 1.60311 58.5002 5.30155 62.1846C8.99999 65.8689 13.4578 67.0221 18.5062 67.2752C23.7094 67.5705 39.3047 67.5705 44.5078 67.2752C49.5562 67.0361 54.0281 65.883 57.7125 62.1846C61.3969 58.5002 62.55 54.0283 62.8031 48.9799C63.0984 43.7767 63.0984 28.1955 62.8031 22.9924ZM56.0812 54.5627C54.9844 57.3189 52.8609 59.4424 50.0906 60.5533C45.9422 62.1986 36.0984 61.8189 31.514 61.8189C26.9297 61.8189 17.0719 62.1846 12.9375 60.5533C10.1812 59.4564 8.0578 57.333 6.94686 54.5627C5.30155 50.4142 5.68124 40.5705 5.68124 35.9861C5.68124 31.4018 5.31561 21.5439 6.94686 17.4096C8.04374 14.6533 10.1672 12.5299 12.9375 11.4189C17.0859 9.77363 26.9297 10.1533 31.514 10.1533C36.0984 10.1533 45.9562 9.78769 50.0906 11.4189C52.8469 12.5158 54.9703 14.6393 56.0812 17.4096C57.7265 21.558 57.3469 31.4018 57.3469 35.9861C57.3469 40.5705 57.7265 50.4283 56.0812 54.5627Z" fill="#262626"/>
</g>
<defs>
<clipPath id="clip0">
<rect width="63" height="72" fill="white"/>
</clipPath>
</defs>
</svg>
