<svg width="82" height="66" viewBox="0 0 82 66" fill="none" xmlns="http://www.w3.org/2000/svg">
<path d="M32.6757 33.7283C33.4765 34.534 34.7744 34.534 35.5752 33.7283L37.0243 32.2704C37.8251 31.4647 37.8251 30.1589 37.0243 29.3532L32.4477 24.75L37.023 20.1455C37.8238 19.3398 37.8238 18.034 37.023 17.2283L35.5739 15.7704C34.7731 14.9647 33.4752 14.9647 32.6744 15.7704L25.1996 23.2908C24.3988 24.0964 24.3988 25.4023 25.1996 26.2079L32.6757 33.7283V33.7283ZM44.977 32.2717L46.4261 33.7296C47.2269 34.5353 48.5248 34.5353 49.3256 33.7296L56.8004 26.2092C57.6012 25.4036 57.6012 24.0977 56.8004 23.2921L49.3256 15.7717C48.5248 14.966 47.2269 14.966 46.4261 15.7717L44.977 17.2296C44.1762 18.0353 44.1762 19.3411 44.977 20.1468L49.5523 24.75L44.977 29.3545C44.1762 30.1602 44.1762 31.466 44.977 32.2717V32.2717ZM79.95 53.625H48.8848C48.79 56.1786 47.0001 57.75 44.69 57.75H36.9C34.5053 57.75 32.6693 55.498 32.7013 53.625H2.05C0.9225 53.625 0 54.5531 0 55.6875V57.75C0 62.2875 3.69 66 8.2 66H73.8C78.31 66 82 62.2875 82 57.75V55.6875C82 54.5531 81.0775 53.625 79.95 53.625ZM73.8 6.1875C73.8 2.78438 71.0325 0 67.65 0H14.35C10.9675 0 8.2 2.78438 8.2 6.1875V49.5H73.8V6.1875ZM65.6 41.25H16.4V8.25H65.6V41.25Z" fill="white"/>
</svg>
