<svg width="46" height="46" viewBox="0 0 46 46" fill="none" xmlns="http://www.w3.org/2000/svg">
<g clip-path="url(#clip0)">
<path d="M29.3436 16.6563C34.7115 22.0297 34.6378 30.6448 29.3759 35.9358C29.3661 35.9466 29.3544 35.9583 29.3436 35.9691L23.3061 42.0066C17.9811 47.3316 9.31752 47.3309 3.99329 42.0066C-1.33175 36.6824 -1.33175 28.0179 3.99329 22.6938L7.32703 19.36C8.2111 18.476 9.73359 19.0635 9.77923 20.3129C9.83745 21.9051 10.123 23.5048 10.6498 25.0496C10.8282 25.5726 10.7008 26.1512 10.3099 26.542L9.13415 27.7178C6.61619 30.2358 6.53722 34.3357 9.03038 36.8783C11.5482 39.4459 15.6865 39.4612 18.2236 36.9241L24.2611 30.8875C26.7939 28.3547 26.7833 24.2609 24.2611 21.7387C23.9286 21.4068 23.5937 21.149 23.3321 20.9689C23.147 20.8418 22.9942 20.6732 22.8858 20.4765C22.7774 20.2799 22.7165 20.0606 22.7079 19.8363C22.6723 18.8869 23.0087 17.9086 23.7589 17.1584L25.6505 15.2667C26.1465 14.7707 26.9246 14.7098 27.4998 15.1112C28.1585 15.5712 28.7755 16.0882 29.3436 16.6563V16.6563ZM42.0057 3.99351C36.6815 -1.33081 28.018 -1.33153 22.6929 3.99351L16.6554 10.031C16.6446 10.0418 16.633 10.0535 16.6231 10.0643C11.3613 15.3553 11.2875 23.9704 16.6554 29.3438C17.2235 29.9119 17.8404 30.4289 18.4991 30.8888C19.0743 31.2902 19.8525 31.2292 20.3484 30.7333L22.24 28.8416C22.9902 28.0914 23.3266 27.1131 23.291 26.1637C23.2824 25.9394 23.2215 25.7201 23.1131 25.5235C23.0048 25.3268 22.8519 25.1582 22.6669 25.0311C22.4052 24.851 22.0703 24.5932 21.7378 24.2613C19.2156 21.7391 19.205 17.6453 21.7378 15.1125L27.7753 9.07588C30.3124 6.53878 34.4507 6.55406 36.9685 9.1217C39.4617 11.6643 39.3828 15.7642 36.8648 18.2822L35.689 19.458C35.2982 19.8488 35.1707 20.4274 35.3491 20.9504C35.876 22.4952 36.1615 24.0949 36.2197 25.6871C36.2654 26.9365 37.7878 27.524 38.6719 26.64L42.0056 23.3062C47.3308 17.9822 47.3308 9.31765 42.0057 3.99351V3.99351Z" fill="#8C602A"/>
</g>
<defs>
<clipPath id="clip0">
<rect width="46" height="46" fill="white"/>
</clipPath>
</defs>
</svg>
