<svg width="26" height="29" viewBox="0 0 26 29" fill="none" xmlns="http://www.w3.org/2000/svg">
<path d="M5.81982 25.3764H0.429464V8.43517H5.81982V25.3764ZM3.12174 6.12424C1.39808 6.12424 0 4.73088 0 3.04865C1.23372e-08 2.24062 0.328897 1.46568 0.914337 0.894311C1.49978 0.322944 2.2938 0.00195312 3.12174 0.00195312C3.94968 0.00195312 4.74371 0.322944 5.32914 0.894311C5.91459 1.46568 6.24348 2.24062 6.24348 3.04865C6.24348 4.73088 4.84482 6.12424 3.12174 6.12424ZM25.9942 25.3764H20.6154V17.1295C20.6154 15.1641 20.5748 12.6436 17.8129 12.6436C15.0104 12.6436 14.5809 14.7789 14.5809 16.9879V25.3764H9.19634V8.43517H14.3662V10.7461H14.4416C15.1612 9.41506 16.9192 8.01037 19.5418 8.01037C24.9971 8.01037 26 11.5164 26 16.0703V25.3764H25.9942Z" fill="#262626"/>
</svg>
