<svg width="55" height="61" viewBox="0 0 55 61" fill="none" xmlns="http://www.w3.org/2000/svg">
<path d="M12.3112 53.3758H0.908482V17.7408H12.3112V53.3758ZM6.60368 12.8799C2.95748 12.8799 0 9.949 0 6.41053C2.6098e-08 4.71087 0.695743 3.08082 1.93417 1.87898C3.1726 0.67714 4.85228 0.00195312 6.60368 0.00195312C8.35509 0.00195312 10.0348 0.67714 11.2732 1.87898C12.5116 3.08082 13.2074 4.71087 13.2074 6.41053C13.2074 9.949 10.2487 12.8799 6.60368 12.8799ZM54.9877 53.3758H43.6096V36.0289C43.6096 31.8947 43.5237 26.5929 37.6811 26.5929C31.7527 26.5929 30.8442 31.0845 30.8442 35.731V53.3758H19.4538V17.7408H30.39V22.6017H30.5496C32.0719 19.8019 35.7905 16.8472 41.3384 16.8472C52.8786 16.8472 55 24.2221 55 33.801V53.3758H54.9877Z" fill="#262626"/>
</svg>
