<svg width="80" height="64" viewBox="0 0 54 86" fill="none" xmlns="http://www.w3.org/2000/svg">
<path d="M45.9 0H8.1C3.62812 0 0 3.61133 0 8.0625V77.9375C0 82.3887 3.62812 86 8.1 86H45.9C50.3719 86 54 82.3887 54 77.9375V8.0625C54 3.61133 50.3719 0 45.9 0ZM27 80.625C24.0131 80.625 21.6 78.223 21.6 75.25C21.6 72.277 24.0131 69.875 27 69.875C29.9869 69.875 32.4 72.277 32.4 75.25C32.4 78.223 29.9869 80.625 27 80.625ZM45.9 62.4844C45.9 63.593 44.9888 64.5 43.875 64.5H10.125C9.01125 64.5 8.1 63.593 8.1 62.4844V10.0781C8.1 8.96953 9.01125 8.0625 10.125 8.0625H43.875C44.9888 8.0625 45.9 8.96953 45.9 10.0781V62.4844Z" fill="#BF7E06"/>
</svg>
