<svg width="80" height="64" viewBox="0 0 114 91" fill="none" xmlns="http://www.w3.org/2000/svg">
<path d="M114 46.9219V44.0781C114 42.507 112.725 41.2344 111.15 41.2344H61.275V34.125H74.1C77.2475 34.125 79.8 31.5781 79.8 28.4375V5.6875C79.8 2.54693 77.2475 0 74.1 0H39.9C36.7525 0 34.2 2.54693 34.2 5.6875V28.4375C34.2 31.5781 36.7525 34.125 39.9 34.125H52.725V41.2344H2.85C1.27537 41.2344 0 42.507 0 44.0781V46.9219C0 48.493 1.27537 49.7656 2.85 49.7656H21.375V56.875H11.4C8.25253 56.875 5.7 59.4219 5.7 62.5625V85.3125C5.7 88.4531 8.25253 91 11.4 91H39.9C43.0475 91 45.6 88.4531 45.6 85.3125V62.5625C45.6 59.4219 43.0475 56.875 39.9 56.875H29.925V49.7656H84.075V56.875H74.1C70.9525 56.875 68.4 59.4219 68.4 62.5625V85.3125C68.4 88.4531 70.9525 91 74.1 91H102.6C105.747 91 108.3 88.4531 108.3 85.3125V62.5625C108.3 59.4219 105.747 56.875 102.6 56.875H92.625V49.7656H111.15C112.725 49.7656 114 48.493 114 46.9219ZM45.6 22.75V11.375H68.4V22.75H45.6ZM34.2 79.625H17.1V68.25H34.2V79.625ZM96.9 79.625H79.8V68.25H96.9V79.625Z" fill="#BF7E06"/>
</svg>
