<svg width="80" height="64" viewBox="0 0 87 87" fill="none" xmlns="http://www.w3.org/2000/svg">
<g clip-path="url(#clip0)">
<path d="M18.5992 41.4665L41.4673 18.6018L33.9703 11.1049L23.4895 21.5856C23.3646 21.7109 23.2161 21.8102 23.0527 21.878C22.8893 21.9458 22.7141 21.9807 22.5371 21.9807C22.3602 21.9807 22.185 21.9458 22.0216 21.878C21.8582 21.8102 21.7097 21.7109 21.5847 21.5856L19.6799 19.6808C19.1531 19.1541 19.1531 18.3011 19.6799 17.776L30.1607 7.29521L24.4445 1.57734C22.3392 -0.527988 18.9271 -0.527988 16.8218 1.57734L1.57812 16.821C-0.525511 18.9264 -0.52721 22.3384 1.57812 24.4437L18.5992 41.4665ZM84.6087 21.6196C87.7965 18.4319 87.7948 13.2646 84.6087 10.0768L76.9198 2.38787C73.732 -0.799863 68.563 -0.799863 65.3736 2.38787L57.5538 10.206L76.7889 29.4411L84.6087 21.6196ZM53.7085 14.053L3.24166 64.513L0.0539224 82.7694C-0.37598 85.2316 1.76843 87.376 4.2323 86.9427L22.4904 83.7414L72.9436 33.2865L53.7085 14.053ZM85.421 62.5538L79.7048 56.8376L69.224 67.3184C68.6973 67.8452 67.8443 67.8452 67.3192 67.3184L65.4144 65.4136C64.8893 64.8868 64.8893 64.0338 65.4144 63.5088L75.8951 53.028L68.3948 45.5276L45.5267 68.3923L62.5546 85.4185C64.6599 87.5238 68.072 87.5238 70.1773 85.4185L85.421 70.1765C87.5263 68.0712 87.5263 64.6591 85.421 62.5538Z" fill="#BF7E06"/>
</g>
<defs>
<clipPath id="clip0">
<rect width="87" height="87" fill="white"/>
</clipPath>
</defs>
</svg>
