<svg width="46" height="46" viewBox="0 0 46 46" fill="none" xmlns="http://www.w3.org/2000/svg">
<g clip-path="url(#clip0)">
<path d="M44.6874 32.5046L34.6249 28.1921C34.195 28.009 33.7173 27.9704 33.2636 28.0822C32.8099 28.194 32.4048 28.4501 32.1093 28.8121L27.653 34.2566C20.6593 30.9592 15.031 25.3309 11.7336 18.3372L17.1781 13.8809C17.5408 13.586 17.7975 13.1809 17.9094 12.7269C18.0212 12.273 17.9821 11.795 17.798 11.3653L13.4855 1.30282C13.2835 0.839591 12.9262 0.461382 12.4751 0.233407C12.0241 0.00543119 11.5076 -0.0580215 11.0148 0.05399L1.67109 2.21024C1.19597 2.31996 0.772068 2.58747 0.468567 2.96914C0.165066 3.3508 -0.000109449 3.82406 5.44112e-08 4.31168C5.44112e-08 27.3566 18.6785 45.9992 41.6875 45.9992C42.1753 45.9995 42.6488 45.8344 43.0306 45.5309C43.4124 45.2274 43.6801 44.8034 43.7898 44.3281L45.9461 34.9843C46.0574 34.4891 45.9926 33.9706 45.7629 33.518C45.5331 33.0655 45.1528 32.7071 44.6874 32.5046V32.5046Z" fill="#8C602A"/>
</g>
<defs>
<clipPath id="clip0">
<rect width="46" height="46" fill="white"/>
</clipPath>
</defs>
</svg>
