<svg width="75" height="75" viewBox="0 0 75 75" fill="none" xmlns="http://www.w3.org/2000/svg">
<path d="M68.3013 41.9956C69.5859 39.8203 70.3125 37.5 70.3125 34.6948C70.3125 28.2473 64.8606 22.1587 57.7412 22.1587H52.3975C53.1182 20.2822 53.6938 18.0381 53.6938 15.3413C53.6938 4.67813 48.1729 0 39.7383 0C30.7138 0 31.2286 13.9062 29.2266 15.9082C25.8945 19.2403 21.9587 25.6417 19.1543 28.125H4.6875C2.09868 28.125 0 30.2237 0 32.8125V67.9688C0 70.5576 2.09868 72.6562 4.6875 72.6562H14.0625C16.2441 72.6562 18.0773 71.1659 18.6003 69.1479C25.1202 69.2946 29.5954 74.9985 44.6455 74.9985C45.7031 74.9985 46.875 75 47.9004 75C59.1968 75 64.3046 69.2252 64.4443 61.0356C66.3954 58.3367 67.4178 54.7189 66.9844 51.2227C68.4278 48.5197 68.9859 45.313 68.3013 41.9956ZM59.2559 49.8809C61.0957 52.9761 59.4404 57.1187 57.2139 58.314C58.3418 65.4595 54.6346 67.9673 49.4326 67.9673H43.8926C33.3986 67.9673 26.6032 62.4272 18.75 62.4272V35.1562H20.3496C24.5039 35.1562 30.3076 24.772 34.1982 20.8799C38.3525 16.7256 36.9683 9.80127 39.7383 7.03125C46.6626 7.03125 46.6626 11.8623 46.6626 15.3413C46.6626 21.0791 42.5083 23.6499 42.5083 29.1899H57.7412C60.8335 29.1899 63.2681 31.96 63.2812 34.73C63.2944 37.4985 61.4033 40.2686 60.019 40.2686C61.995 42.4006 62.4171 46.8949 59.2559 49.8809ZM12.8906 63.2812C12.8906 65.2229 11.3167 66.7969 9.375 66.7969C7.43335 66.7969 5.85938 65.2229 5.85938 63.2812C5.85938 61.3396 7.43335 59.7656 9.375 59.7656C11.3167 59.7656 12.8906 61.3396 12.8906 63.2812Z" fill="#BF7E06"/>
</svg>
