<svg width="66" height="66" viewBox="0 0 66 66" fill="none" xmlns="http://www.w3.org/2000/svg">
<path d="M33 33C43.4156 33 51.8571 25.6137 51.8571 16.5C51.8571 7.38633 43.4156 0 33 0C22.5844 0 14.1429 7.38633 14.1429 16.5C14.1429 25.6137 22.5844 33 33 33ZM46.2 37.125H43.7397C40.4692 38.4398 36.8304 39.1875 33 39.1875C29.1696 39.1875 25.5455 38.4398 22.2603 37.125H19.8C8.86875 37.125 0 44.8852 0 54.45V59.8125C0 63.2285 3.16741 66 7.07143 66H58.9286C62.8326 66 66 63.2285 66 59.8125V54.45C66 44.8852 57.1313 37.125 46.2 37.125Z" fill="white"/>
</svg>
